<?xml version="1.0" encoding="utf-8"?>
<!-- Generator: Adobe Illustrator 25.2.1, SVG Export Plug-In . SVG Version: 6.00 Build 0)  -->
<svg version="1.1" id="Capa_1" xmlns="http://www.w3.org/2000/svg" xmlns:xlink="http://www.w3.org/1999/xlink" x="0px" y="0px"
	 viewBox="0 0 600 36.29" style="enable-background:new 0 0 600 36.29;" xml:space="preserve">
<style type="text/css">
	.st0{fill:#FFFFFF;}
	.st1{fill:#FFD8E3;}
</style>
<g>
	<path class="st0" d="M0,0c50,0,50,22,100,22c50,0,50-22,100-22c50,0,50,22,100,22c50,0,50-22,100-22c50,0,50,22,100,22S550,0,600,0
		"/>
	<path class="st1" d="M0,0c50,0,50,22,100,22c50,0,50-22,100-22c50,0,50,22,100,22c50,0,50-22,100-22c50,0,50,22,100,22S550,0,600,0
		v36.29H0V0z"/>
</g>
</svg>
