<svg xmlns="http://www.w3.org/2000/svg" viewBox="0 0 605.78 46.98"><defs><style>.cls-1{fill:#fff;}.cls-2{fill:#ffd8e3;}</style></defs><g id="Capa_2" data-name="Capa 2"><g id="Capa_1-2" data-name="Capa 1"><g id="g8"><path id="path4" class="cls-1" d="M0,4.7c50.45-.39,50.65,25.24,101.11,24.85s50.25-26,100.71-26.42S252.47,28.37,302.92,28,353.18,2,403.63,1.57,454.29,26.8,504.74,26.41,555,.39,605.45,0"/><path id="path6" class="cls-2" d="M0,4.7c50.45-.39,50.65,25.24,101.11,24.85s50.25-26,100.71-26.42S252.47,28.37,302.92,28,353.18,2,403.63,1.57,454.29,26.8,504.74,26.41,555,.39,605.45,0l.33,42.28L.33,47Z"/></g></g></g></svg>