<?xml version="1.0" encoding="UTF-8" standalone="no"?>
<!-- Generator: Adobe Illustrator 25.2.1, SVG Export Plug-In . SVG Version: 6.00 Build 0)  -->

<svg
   version="1.1"
   id="Capa_1"
   x="0px"
   y="0px"
   viewBox="0 0 600 36.29"
   style="enable-background:new 0 0 600 36.29;"
   xml:space="preserve"
   sodipodi:docname="banner.svg"
   inkscape:version="1.1.2 (0a00cf5339, 2022-02-04)"
   xmlns:inkscape="http://www.inkscape.org/namespaces/inkscape"
   xmlns:sodipodi="http://sodipodi.sourceforge.net/DTD/sodipodi-0.dtd"
   xmlns="http://www.w3.org/2000/svg"
   xmlns:svg="http://www.w3.org/2000/svg"><defs
   id="defs13" /><sodipodi:namedview
   id="namedview11"
   pagecolor="#ffffff"
   bordercolor="#666666"
   borderopacity="1.0"
   inkscape:pageshadow="2"
   inkscape:pageopacity="0.0"
   inkscape:pagecheckerboard="0"
   showgrid="false"
   inkscape:zoom="1.3435029"
   inkscape:cx="344.62151"
   inkscape:cy="15.630781"
   inkscape:window-width="1366"
   inkscape:window-height="696"
   inkscape:window-x="0"
   inkscape:window-y="0"
   inkscape:window-maximized="1"
   inkscape:current-layer="Capa_1" />
<style
   type="text/css"
   id="style2">
	.st0{fill:#FFFFFF;}
	.st1{fill:#FFD8E3;}
</style>
<g
   id="g8"
   transform="matrix(-1.0091158,0,0,-1.1650369,603.48944,34.775737)">
	<path
   class="st0"
   d="m 0,0 c 50,0 50,22 100,22 50,0 50,-22 100,-22 50,0 50,22 100,22 50,0 50,-22 100,-22 50,0 50,22 100,22 50,0 50,-22 100,-22"
   id="path4" />
	<path
   class="st1"
   d="m 0,0 c 50,0 50,22 100,22 50,0 50,-22 100,-22 50,0 50,22 100,22 50,0 50,-22 100,-22 50,0 50,22 100,22 50,0 50,-22 100,-22 V 36.29 H 0 Z"
   id="path6" />
</g>
</svg>
