<?xml version="1.0" encoding="utf-8"?>
<!-- Generator: Adobe Illustrator 27.2.0, SVG Export Plug-In . SVG Version: 6.00 Build 0)  -->
<svg version="1.1" id="Capa_1" xmlns="http://www.w3.org/2000/svg" xmlns:xlink="http://www.w3.org/1999/xlink" x="0px" y="0px"
	 viewBox="0 0 3840 2160" style="enable-background:new 0 0 3840 2160;" xml:space="preserve">
<style type="text/css">
	.st0{fill:#FAD6E2;}
	.st1{fill:none;}
</style>
<g>
	<path class="st0" d="M-65.4,817C-43.7,560.3-16,346.2,105.4,250.3s259.6-83.9,384.3-6.5C591,306.6,689.4,412,795.4,404.6
		c202.2-14,372.9-433.6,570.5-346.7C1543.4,136,1653.5,502.1,1835,481c108.2-12.6,183.7-99.5,272.4-223.7
		C2226.8,90,2380.7,24,2524,78.7c151.8,57.9,288.2,242.6,442.2,269.7c156.6,27.6,307-110.8,460.5-178.7s353.4-2,438.3,261.8
		l-5.4,385.4H-65.4z"/>
	<path class="st0" d="M3848.3,769.2c12.1,0,21.7,10,21.4,22l-19,1330.5c-0.3,11.6,0,39-40.1,39H-139.5c41.7-50.6,11.1-14,136.2-26.1
		L1.5,790"/>
</g>
<path class="st1" d="M1508.3-138.2c0-2.3,0-4.7,0-7"/>
</svg>
